# xmcd
#
# Track frame offsets: 
#        150
#        14198
#        30426
#        49847
#        63908
#        85030
#        103571
#        122638
#        135961
#        144098
#        167439
#        187399
#        205787
#        217745
#        237435
#
# Disc length: 3447 seconds
#
# Revision: 0
# Processed by: cddbd v1.5.2PL0 Copyright (c) Steve Scherf et al.
# Submitted via: ExactAudioCopyFreeDBPlugin 1.0
#
DISCID=c50d750f
DTITLE=Souldada - Canção
DYEAR=2007
DGENRE=World
TTITLE0=Sokernte
TTITLE1=Nimmen Sjongt
TTITLE2=Pena
TTITLE3=Gelok
TTITLE4=Luna Nueva
TTITLE5=Ausencia
TTITLE6=Swimming Pool
TTITLE7=Ligo Ligo tha Me Sinithiseis
TTITLE8=Canção
TTITLE9=Do Libbest Yn My
TTITLE10=Geia
TTITLE11=It Strân
TTITLE12=Teli, Teli, Teli
TTITLE13=Huiswaarts
TTITLE14=Silveira Marisé (live)
EXTD=
EXTT0=
EXTT1=
EXTT2=
EXTT3=
EXTT4=
EXTT5=
EXTT6=
EXTT7=
EXTT8=
EXTT9=
EXTT10=
EXTT11=
EXTT12=
EXTT13=
EXTT14=
PLAYORDER=
